<svg width="680" height="288" viewBox="0 0 680 288" fill="none" xmlns="http://www.w3.org/2000/svg">
<g clip-path="url(#clip0_320_23472)">
<path fill-rule="evenodd" clip-rule="evenodd" d="M67.2604 38.316C61.3529 34.6915 54.363 32.8905 46.2458 32.8905C40.7215 32.8905 35.6483 34.1062 30.9808 36.5375C26.336 38.9688 22.7509 42.1881 20.2706 46.1728V0H4.55469V115.691H20.2931V103.534C22.7734 107.631 26.3585 110.918 31.0034 113.327C35.6483 115.758 40.6764 116.974 46.0879 116.974C54.3179 116.974 61.3529 115.196 67.1928 111.616C73.0327 108.059 77.4972 103.084 80.5863 96.7129C83.6753 90.3419 85.2086 83.0929 85.2086 74.9885C85.2086 66.8841 83.6979 59.5226 80.6539 53.1966C77.6325 46.8706 73.168 41.9179 67.2604 38.2934V38.316ZM69.2897 99.6395H20.2931V50.5626H69.2897V99.6395ZM116.528 34.1962H100.789V115.691H116.528V34.1962ZM145.908 8.57715H161.646H161.669V34.1736H185.682V47.7936H161.669V101.463H185.682V115.713H172.852C164.622 115.713 158.083 113.327 153.213 108.577C148.343 103.827 145.908 97.2757 145.908 88.9686V47.8161H129.2V34.1962H145.908V8.57715ZM137.79 185.749C143.315 185.749 148.14 187.257 152.311 190.297C156.482 193.313 158.94 197.163 159.684 201.8H175.423C174.656 195.745 172.492 190.477 168.929 185.997C165.366 181.517 160.812 178.05 155.287 175.619C149.763 173.187 143.811 171.972 137.43 171.972C129.109 171.972 121.871 173.885 115.761 177.735C109.65 181.562 104.961 186.672 101.714 193.043C98.4667 199.414 96.8433 206.438 96.8433 214.115C96.8433 221.791 98.4667 228.815 101.714 235.186C104.961 241.557 109.628 246.667 115.761 250.494C121.894 254.322 129.087 256.258 137.43 256.258C147.711 256.258 156.28 253.601 163.157 248.311C170.034 243.02 174.115 236.042 175.4 227.397H159.82C158.512 232.034 155.896 235.704 151.95 238.405C148.004 241.107 143.269 242.458 137.745 242.458C129.966 242.458 123.923 239.779 119.639 234.443C115.355 229.085 113.236 222.309 113.236 214.115C113.236 205.92 115.355 198.986 119.572 193.696C123.788 188.406 129.853 185.749 137.745 185.749H137.79ZM54.115 175.551C58.8275 177.825 62.4803 180.751 65.0733 184.308V184.286V173.435H80.8117V254.929H65.0733V243.921C63.1116 247.478 59.752 250.427 54.9267 252.746C50.1015 255.064 44.8929 256.235 39.2559 256.235C31.0485 256.235 23.991 254.434 18.0834 250.81C12.1984 247.185 7.71139 242.232 4.62232 235.906C1.53326 229.581 0 222.489 0 214.272C0 206.055 1.55581 198.806 4.62232 192.48C7.68884 186.154 12.1759 181.202 18.0834 177.577C23.9684 173.953 30.9808 172.152 39.0981 172.152C44.3968 172.152 49.4025 173.277 54.115 175.551ZM15.8963 238.923H65.2311V189.824H15.8963V238.923ZM663.766 173.277L642.187 234.533L620.767 173.277H604.532L634.882 255.762L623.833 288H638.94L651.274 252.025L680 173.277H663.766ZM347.757 185.398C345.277 181.407 341.7 178.223 337.069 175.799C332.424 173.367 327.328 172.152 321.804 172.152C313.687 172.152 306.719 173.953 300.88 177.577C295.04 181.202 290.575 186.199 287.486 192.57C284.397 198.941 282.864 206.19 282.864 214.295C282.864 222.399 284.397 229.603 287.486 235.929C290.575 242.255 295.062 247.208 300.947 250.832C306.855 254.457 313.845 256.258 321.962 256.258C327.373 256.258 332.402 255.042 337.046 252.611C341.691 250.179 345.276 246.915 347.757 242.818V254.975H363.495V139.261H347.757V185.398ZM298.76 238.901H347.779V189.801H298.76V238.901ZM566.855 172.152H565.569C560.271 172.264 555.423 173.39 551.049 175.551C546.674 177.712 543.067 180.571 540.248 184.128C537.43 180.571 533.822 177.69 529.38 175.551C524.938 173.39 520.068 172.264 514.769 172.152H512.649C507.892 172.264 503.518 173.39 499.504 175.551C495.491 177.712 492.266 180.571 489.763 184.128V173.435H474.025V254.929H489.763V189.621H526.922V254.929H542.503V189.621H579.82V254.929H595.558V203.084C595.558 193.696 592.965 186.177 587.779 180.571C582.593 174.943 575.603 172.152 566.855 172.152ZM435.265 239.058C439.053 236.582 441.533 233.002 442.728 228.365L442.683 228.342H458.421C456.911 236.785 452.739 243.516 445.93 248.603C439.12 253.669 430.665 256.213 420.609 256.213C412.379 256.213 405.163 254.277 398.94 250.382C392.717 246.487 387.937 241.309 384.577 234.826C381.217 228.342 379.549 221.274 379.549 213.597C379.549 205.92 381.127 198.941 384.261 192.615C387.418 186.312 391.95 181.292 397.903 177.555C403.855 173.84 410.913 171.972 419.008 171.972C427.102 171.972 434.092 173.728 439.932 177.239C445.772 180.751 450.214 185.434 453.235 191.332C456.279 197.208 457.79 203.669 457.79 210.693C457.79 212.854 457.7 214.925 457.474 216.861H394.994C395.648 224.65 398.309 230.909 402.954 235.659C407.621 240.409 413.506 242.795 420.654 242.795C426.606 242.795 431.477 241.535 435.265 239.058ZM419.053 184.623C412.649 184.623 407.441 186.379 403.382 189.891H403.405C399.346 193.403 396.73 198.559 395.535 205.357H441.939C441.398 199.099 439.143 194.079 435.129 190.297C431.116 186.515 425.75 184.623 419.053 184.623ZM250.891 184.308C248.298 180.751 244.645 177.825 239.932 175.551C235.22 173.277 230.214 172.152 224.915 172.152C216.798 172.152 209.786 173.953 203.901 177.577C197.993 181.202 193.506 186.154 190.44 192.48C187.373 198.806 185.817 206.055 185.817 214.272C185.817 222.489 187.351 229.581 190.44 235.906C193.529 242.232 198.016 247.185 203.901 250.81C209.808 254.434 216.866 256.235 225.073 256.235C230.71 256.235 235.919 255.064 240.744 252.746C245.569 250.427 248.929 247.478 250.891 243.921V254.929H266.629V173.435H250.891V184.286V184.308ZM251.048 238.923H201.714V189.824H251.048V238.923ZM100.767 0.157593H116.482V15.8487H100.767V0.157593Z" fill="#FFF9ED"/>
</g>
<defs>
<clipPath id="clip0_320_23472">
<rect width="680" height="288" fill="white"/>
</clipPath>
</defs>
</svg>
